<svg width="25" height="24" viewBox="0 0 25 24" fill="none" xmlns="http://www.w3.org/2000/svg">
<path d="M21.5 12C21.5 16.9706 17.4706 21 12.5 21C7.52944 21 3.5 16.9706 3.5 12C3.5 7.02944 7.52944 3 12.5 3C17.4706 3 21.5 7.02944 21.5 12Z" fill="#EA4D4D"/>
<path d="M16.3891 9.52513C16.7796 9.1346 16.7796 8.50144 16.3891 8.11091C15.9986 7.72039 15.3654 7.72039 14.9749 8.11091L16.3891 9.52513ZM8.61091 14.4749C8.22039 14.8654 8.22039 15.4986 8.61091 15.8891C9.00144 16.2796 9.6346 16.2796 10.0251 15.8891L8.61091 14.4749ZM14.9749 15.8891C15.3654 16.2796 15.9986 16.2796 16.3891 15.8891C16.7796 15.4986 16.7796 14.8654 16.3891 14.4749L14.9749 15.8891ZM10.0251 8.11091C9.6346 7.72039 9.00144 7.72039 8.61091 8.11091C8.22039 8.50144 8.22039 9.1346 8.61091 9.52513L10.0251 8.11091ZM21.5 12H20.5C20.5 16.4183 16.9183 20 12.5 20V21V22C18.0228 22 22.5 17.5228 22.5 12H21.5ZM12.5 21V20C8.08172 20 4.5 16.4183 4.5 12H3.5H2.5C2.5 17.5228 6.97715 22 12.5 22V21ZM3.5 12H4.5C4.5 7.58172 8.08172 4 12.5 4V3V2C6.97715 2 2.5 6.47715 2.5 12H3.5ZM12.5 3V4C16.9183 4 20.5 7.58172 20.5 12H21.5H22.5C22.5 6.47715 18.0228 2 12.5 2V3ZM15.682 8.81802L14.9749 8.11091L11.7929 11.2929L12.5 12L13.2071 12.7071L16.3891 9.52513L15.682 8.81802ZM12.5 12L11.7929 11.2929L8.61091 14.4749L9.31802 15.182L10.0251 15.8891L13.2071 12.7071L12.5 12ZM15.682 15.182L16.3891 14.4749L13.2071 11.2929L12.5 12L11.7929 12.7071L14.9749 15.8891L15.682 15.182ZM12.5 12L13.2071 11.2929L10.0251 8.11091L9.31802 8.81802L8.61091 9.52513L11.7929 12.7071L12.5 12Z" fill="black"/>
</svg>
