<svg width="25" height="24" viewBox="0 0 25 24" fill="none" xmlns="http://www.w3.org/2000/svg">
<path d="M8.5 21H16.5C17.6046 21 18.5 20.0519 18.5 18.8824V7.23529C18.5 6.65052 18.0523 6.17647 17.5 6.17647H7.5C6.94772 6.17647 6.5 6.65052 6.5 7.23529V18.8824C6.5 20.0519 7.39543 21 8.5 21Z" fill="#EA4D4D"/>
<path d="M9.5 4.05882C9.5 3.47405 9.94772 3 10.5 3H14.5C15.0523 3 15.5 3.47405 15.5 4.05882V5.11765C15.5 5.70242 15.0523 6.17647 14.5 6.17647H10.5C9.94772 6.17647 9.5 5.70242 9.5 5.11765V4.05882Z" fill="#EA4D4D"/>
<path d="M4.5 6.17647H20.5M10.5 16.7647V10.4118M14.5 16.7647V10.4118M16.5 21H8.5C7.39543 21 6.5 20.0519 6.5 18.8824V7.23529C6.5 6.65052 6.94772 6.17647 7.5 6.17647H17.5C18.0523 6.17647 18.5 6.65052 18.5 7.23529V18.8824C18.5 20.0519 17.6046 21 16.5 21ZM10.5 6.17647H14.5C15.0523 6.17647 15.5 5.70242 15.5 5.11765V4.05882C15.5 3.47405 15.0523 3 14.5 3H10.5C9.94772 3 9.5 3.47405 9.5 4.05882V5.11765C9.5 5.70242 9.94772 6.17647 10.5 6.17647Z" stroke="black" stroke-width="2" stroke-linecap="round" stroke-linejoin="round"/>
</svg>
